<svg version="1.1" id="Layer_1" xmlns="http://www.w3.org/2000/svg" xmlns:xlink="http://www.w3.org/1999/xlink" x="0px" y="0px"
	 width="100%" viewBox="0 0 396 392" enable-background="new 0 0 396 392" xml:space="preserve">
<path fill="#E1261C" opacity="1.000000" stroke="none" 
	d="
M0.999997,373.000000 
	C1.000000,255.977997 1.000000,138.955978 1.326271,21.719879 
	C5.660843,12.979229 11.479088,6.292691 20.497263,2.785245 
	C20.843859,2.650444 20.840363,1.615499 21.000000,1.000000 
	C139.022018,1.000000 257.044037,1.000000 375.281555,1.327504 
	C384.713440,6.265848 392.350555,12.364703 395.509918,22.744020 
	C395.575806,22.960480 396.484497,22.920404 397.000000,23.000000 
	C397.000000,138.688675 397.000000,254.377365 396.663452,370.298157 
	C392.094666,379.913910 386.181000,387.674957 376.179016,391.545502 
	C375.963928,391.628754 376.052856,392.497620 376.000000,393.000000 
	C257.977997,393.000000 139.955978,393.000000 21.759357,392.702545 
	C21.122747,391.959015 20.739063,391.321228 20.186962,391.095734 
	C12.242745,387.851013 6.644166,382.252258 3.105730,374.467499 
	C2.801275,373.797699 1.720265,373.480835 0.999997,373.000000 
M170.124252,216.625076 
	C174.869003,211.937836 179.613754,207.250580 184.358505,202.563339 
	C184.068542,202.111908 183.778580,201.660492 183.488617,201.209061 
	C181.899277,201.104126 180.310303,200.915863 178.720520,200.908539 
	C171.554047,200.875519 164.375916,201.143188 157.224213,200.816376 
	C151.270508,200.544327 146.768585,202.535416 142.628876,206.832031 
	C127.597084,222.433670 112.322578,237.801666 97.109818,253.228394 
	C95.785057,254.571777 94.242157,255.700058 91.939262,257.662079 
	C91.654404,254.581024 91.331032,252.674637 91.325218,250.767303 
	C91.281052,236.267517 91.241997,221.767181 91.332253,207.267822 
	C91.359337,202.914978 89.667877,200.765503 85.137978,200.863220 
	C78.974220,200.996140 72.803276,200.995087 66.639519,200.861710 
	C62.224483,200.766159 60.185715,202.742828 60.187634,207.120117 
	C60.205246,247.286575 60.211620,287.453033 60.180294,327.619476 
	C60.176640,332.302032 62.419224,334.183411 66.993561,334.060913 
	C72.822701,333.904846 78.659477,334.060303 84.492371,334.011322 
	C90.144608,333.963867 91.244308,332.901306 91.282745,327.268158 
	C91.343025,318.435303 91.393257,309.600372 91.265587,300.768951 
	C91.193764,295.800659 92.634354,291.642487 96.424950,288.316132 
	C98.426575,286.559631 100.251228,284.602600 102.175240,282.756378 
	C106.951775,278.172913 108.422501,278.262573 112.418343,283.434357 
	C123.927284,298.330200 135.341980,313.300293 147.008255,328.071777 
	C148.868195,330.426788 151.734116,333.356720 154.308075,333.536041 
	C164.258972,334.229370 174.280823,333.975616 184.272705,333.831177 
	C184.870605,333.822571 186.126495,331.489227 185.864258,330.591797 
	C185.427750,329.098022 184.027939,327.876312 183.000519,326.566071 
	C166.450211,305.459900 149.883316,284.366730 133.348740,263.248260 
	C129.469360,258.293396 129.575180,256.574188 133.996338,252.205124 
	C145.850922,240.490189 157.742020,228.812225 170.124252,216.625076 
M207.905304,160.548355 
	C210.357269,163.897232 212.494522,167.541199 215.312637,170.546753 
	C232.739349,189.132370 254.407578,195.170074 279.252350,192.057480 
	C317.544556,187.260132 344.224304,149.212799 335.406921,111.707298 
	C328.021271,80.291862 301.917175,60.088486 268.427673,59.868366 
	C214.469284,59.513706 181.719025,113.304932 207.905304,160.548355 
M231.405548,280.891876 
	C230.534500,275.166718 228.999344,269.451385 228.914459,263.714600 
	C228.638321,245.053238 228.909622,226.384064 228.932236,207.717850 
	C228.938934,202.202560 227.688232,200.957397 222.181503,200.905441 
	C216.682098,200.853577 211.181625,200.864807 205.681992,200.902237 
	C199.641586,200.943344 198.769653,201.790100 198.754105,207.948776 
	C198.706543,226.781647 198.669449,245.614822 198.735565,264.447510 
	C198.749542,268.432220 198.835480,272.484467 199.539200,276.388275 
	C205.308914,308.395172 225.864609,328.713837 258.514587,333.288757 
	C296.415222,338.599457 331.354675,313.876343 335.620300,276.276642 
	C338.254120,253.060410 336.694824,229.365936 336.953094,205.885452 
	C336.991821,202.366043 334.879059,200.869476 331.472015,200.892380 
	C326.305725,200.927109 321.138977,200.891281 315.972443,200.894760 
	C308.088043,200.900070 307.430573,201.454483 307.357727,209.388184 
	C307.180267,228.720078 307.294067,248.056519 306.929260,267.384308 
	C306.550232,287.466400 293.309875,303.054596 274.230194,306.502289 
	C256.238983,309.753357 239.200165,299.762665 231.405548,280.891876 
M160.744598,182.270569 
	C179.495178,169.970367 188.945358,152.402176 190.595245,130.227722 
	C193.250427,94.542274 165.101349,61.726910 129.400436,60.191753 
	C108.284538,59.283752 87.102448,59.934315 65.950378,59.831635 
	C61.926777,59.812103 60.189236,61.799644 60.197117,65.654915 
	C60.206993,70.485252 60.185322,75.315659 60.197414,80.145981 
	C60.215496,87.369461 60.963226,88.088684 68.223183,88.176491 
	C88.373985,88.420212 108.557190,88.054665 128.666840,89.099289 
	C152.940338,90.360214 168.919952,112.773155 162.950043,135.816223 
	C158.732208,152.096436 142.688461,163.885925 124.235939,163.965546 
	C105.248390,164.047470 86.259796,163.875671 67.271629,163.831284 
	C61.460606,163.817688 60.267078,164.983719 60.206932,170.816025 
	C60.153683,175.978958 60.137524,181.143753 60.213684,186.306137 
	C60.292282,191.634094 61.732101,192.989868 67.157631,192.990112 
	C85.646149,192.990967 104.134659,192.967224 122.623177,192.958664 
	C136.066772,192.952438 148.636154,189.759155 160.744598,182.270569 
z"/>
<path fill="#000000" opacity="1.000000" stroke="none" 
	d="
M376.468933,393.000000 
	C376.052856,392.497620 375.963928,391.628754 376.179016,391.545502 
	C386.181000,387.674957 392.094666,379.913910 396.663452,370.765137 
	C397.000000,378.257782 397.000000,385.515564 397.000000,393.000000 
	C390.314301,393.000000 383.626068,393.000000 376.468933,393.000000 
z"/>
<path fill="#000000" opacity="1.000000" stroke="none" 
	d="
M397.000000,22.531219 
	C396.484497,22.920404 395.575806,22.960480 395.509918,22.744020 
	C392.350555,12.364703 384.713440,6.265848 375.748535,1.327504 
	C382.927917,1.000000 389.855865,1.000000 397.000000,1.000000 
	C397.000000,8.019339 397.000000,15.040887 397.000000,22.531219 
z"/>
<path fill="#000000" opacity="1.000000" stroke="none" 
	d="
M0.999997,373.469055 
	C1.720265,373.480835 2.801275,373.797699 3.105730,374.467499 
	C6.644166,382.252258 12.242745,387.851013 20.186962,391.095734 
	C20.739063,391.321228 21.122747,391.959015 21.292374,392.702545 
	C14.407270,393.000000 7.814542,393.000000 1.000000,393.000000 
	C1.000000,386.647736 1.000000,380.292908 0.999997,373.469055 
z"/>
<path fill="#000000" opacity="1.000000" stroke="none" 
	d="
M20.530956,1.000000 
	C20.840363,1.615499 20.843859,2.650444 20.497263,2.785245 
	C11.479088,6.292691 5.660843,12.979229 1.326271,21.252895 
	C1.000000,14.407272 1.000000,7.814544 1.000000,1.000000 
	C7.352261,1.000000 13.707088,1.000000 20.530956,1.000000 
z"/>
<path fill="#FFFDFD" opacity="1.000000" stroke="none" 
	d="
M169.871429,216.872314 
	C157.742020,228.812225 145.850922,240.490189 133.996338,252.205124 
	C129.575180,256.574188 129.469360,258.293396 133.348740,263.248260 
	C149.883316,284.366730 166.450211,305.459900 183.000519,326.566071 
	C184.027939,327.876312 185.427750,329.098022 185.864258,330.591797 
	C186.126495,331.489227 184.870605,333.822571 184.272705,333.831177 
	C174.280823,333.975616 164.258972,334.229370 154.308075,333.536041 
	C151.734116,333.356720 148.868195,330.426788 147.008255,328.071777 
	C135.341980,313.300293 123.927284,298.330200 112.418343,283.434357 
	C108.422501,278.262573 106.951775,278.172913 102.175240,282.756378 
	C100.251228,284.602600 98.426575,286.559631 96.424950,288.316132 
	C92.634354,291.642487 91.193764,295.800659 91.265587,300.768951 
	C91.393257,309.600372 91.343025,318.435303 91.282745,327.268158 
	C91.244308,332.901306 90.144608,333.963867 84.492371,334.011322 
	C78.659477,334.060303 72.822701,333.904846 66.993561,334.060913 
	C62.419224,334.183411 60.176640,332.302032 60.180294,327.619476 
	C60.211620,287.453033 60.205246,247.286575 60.187634,207.120117 
	C60.185715,202.742828 62.224483,200.766159 66.639519,200.861710 
	C72.803276,200.995087 78.974220,200.996140 85.137978,200.863220 
	C89.667877,200.765503 91.359337,202.914978 91.332253,207.267822 
	C91.241997,221.767181 91.281052,236.267517 91.325218,250.767303 
	C91.331032,252.674637 91.654404,254.581024 91.939262,257.662079 
	C94.242157,255.700058 95.785057,254.571777 97.109818,253.228394 
	C112.322578,237.801666 127.597084,222.433670 142.628876,206.832031 
	C146.768585,202.535416 151.270508,200.544327 157.224213,200.816376 
	C164.375916,201.143188 171.554047,200.875519 178.720520,200.908539 
	C180.310303,200.915863 181.899277,201.104126 183.488617,201.209061 
	C183.778580,201.660492 184.068542,202.111908 184.358505,202.563339 
	C179.613754,207.250580 174.869003,211.937836 169.871429,216.872314 
z"/>
<path fill="#FFFDFD" opacity="1.000000" stroke="none" 
	d="
M207.705841,160.238953 
	C181.719025,113.304932 214.469284,59.513706 268.427673,59.868366 
	C301.917175,60.088486 328.021271,80.291862 335.406921,111.707298 
	C344.224304,149.212799 317.544556,187.260132 279.252350,192.057480 
	C254.407578,195.170074 232.739349,189.132370 215.312637,170.546753 
	C212.494522,167.541199 210.357269,163.897232 207.705841,160.238953 
M229.983200,108.661545 
	C225.973053,117.434090 225.066940,126.524940 226.984665,135.970734 
	C231.609238,158.748917 254.283127,172.731125 278.995789,167.980743 
	C301.062134,163.739044 315.723877,142.031586 311.514130,119.835632 
	C307.937927,100.980278 294.659088,88.474365 274.925598,85.376884 
	C256.746613,82.523407 239.523575,91.229958 229.983200,108.661545 
z"/>
<path fill="#FFFDFD" opacity="1.000000" stroke="none" 
	d="
M231.578796,281.243622 
	C239.200165,299.762665 256.238983,309.753357 274.230194,306.502289 
	C293.309875,303.054596 306.550232,287.466400 306.929260,267.384308 
	C307.294067,248.056519 307.180267,228.720078 307.357727,209.388184 
	C307.430573,201.454483 308.088043,200.900070 315.972443,200.894760 
	C321.138977,200.891281 326.305725,200.927109 331.472015,200.892380 
	C334.879059,200.869476 336.991821,202.366043 336.953094,205.885452 
	C336.694824,229.365936 338.254120,253.060410 335.620300,276.276642 
	C331.354675,313.876343 296.415222,338.599457 258.514587,333.288757 
	C225.864609,328.713837 205.308914,308.395172 199.539200,276.388275 
	C198.835480,272.484467 198.749542,268.432220 198.735565,264.447510 
	C198.669449,245.614822 198.706543,226.781647 198.754105,207.948776 
	C198.769653,201.790100 199.641586,200.943344 205.681992,200.902237 
	C211.181625,200.864807 216.682098,200.853577 222.181503,200.905441 
	C227.688232,200.957397 228.938934,202.202560 228.932236,207.717850 
	C228.909622,226.384064 228.638321,245.053238 228.914459,263.714600 
	C228.999344,269.451385 230.534500,275.166718 231.578796,281.243622 
z"/>
<path fill="#FFFDFD" opacity="1.000000" stroke="none" 
	d="
M160.446136,182.482361 
	C148.636154,189.759155 136.066772,192.952438 122.623177,192.958664 
	C104.134659,192.967224 85.646149,192.990967 67.157631,192.990112 
	C61.732101,192.989868 60.292282,191.634094 60.213684,186.306137 
	C60.137524,181.143753 60.153683,175.978958 60.206932,170.816025 
	C60.267078,164.983719 61.460606,163.817688 67.271629,163.831284 
	C86.259796,163.875671 105.248390,164.047470 124.235939,163.965546 
	C142.688461,163.885925 158.732208,152.096436 162.950043,135.816223 
	C168.919952,112.773155 152.940338,90.360214 128.666840,89.099289 
	C108.557190,88.054665 88.373985,88.420212 68.223183,88.176491 
	C60.963226,88.088684 60.215496,87.369461 60.197414,80.145981 
	C60.185322,75.315659 60.206993,70.485252 60.197117,65.654915 
	C60.189236,61.799644 61.926777,59.812103 65.950378,59.831635 
	C87.102448,59.934315 108.284538,59.283752 129.400436,60.191753 
	C165.101349,61.726910 193.250427,94.542274 190.595245,130.227722 
	C188.945358,152.402176 179.495178,169.970367 160.446136,182.482361 
z"/>
<path fill="#E1261C" opacity="1.000000" stroke="none" 
	d="
M230.121490,108.308914 
	C239.523575,91.229958 256.746613,82.523407 274.925598,85.376884 
	C294.659088,88.474365 307.937927,100.980278 311.514130,119.835632 
	C315.723877,142.031586 301.062134,163.739044 278.995789,167.980743 
	C254.283127,172.731125 231.609238,158.748917 226.984665,135.970734 
	C225.066940,126.524940 225.973053,117.434090 230.121490,108.308914 
z"/>
</svg>